<?xml version="1.0" encoding="UTF-8" standalone="no"?>
<!-- Created with Inkscape (http://www.inkscape.org/) -->

<svg
   xmlns:dc="http://purl.org/dc/elements/1.1/"
   xmlns:cc="http://creativecommons.org/ns#"
   xmlns:rdf="http://www.w3.org/1999/02/22-rdf-syntax-ns#"
   xmlns:svg="http://www.w3.org/2000/svg"
   xmlns="http://www.w3.org/2000/svg"
   xmlns:sodipodi="http://sodipodi.sourceforge.net/DTD/sodipodi-0.dtd"
   xmlns:inkscape="http://www.inkscape.org/namespaces/inkscape"
   id="svg2"
   version="1.1"
   inkscape:version="0.91 r13725"
   xml:space="preserve"
   width="990"
   height="765"
   viewBox="0 0 990 765"
   sodipodi:docname="STJ.svg"><metadata
     id="metadata8"><rdf:RDF><cc:Work
         rdf:about=""><dc:format>image/svg+xml</dc:format><dc:type
           rdf:resource="http://purl.org/dc/dcmitype/StillImage" /><dc:title></dc:title></cc:Work></rdf:RDF></metadata><defs
     id="defs6"><clipPath
       clipPathUnits="userSpaceOnUse"
       id="clipPath62"><path
         d="m 614,594.719 4,0 0,-272.441 -4,0 0,272.441 z"
         id="path64"
         inkscape:connector-curvature="0" /></clipPath><clipPath
       clipPathUnits="userSpaceOnUse"
       id="clipPath72"><path
         d="m 614,322 4,0 0,274 -4,0 0,-274 z"
         id="path74"
         inkscape:connector-curvature="0" /></clipPath><clipPath
       clipPathUnits="userSpaceOnUse"
       id="clipPath82"><path
         d="m 614,596 4,0 0,-274 -4,0 0,274 z"
         id="path84"
         inkscape:connector-curvature="0" /></clipPath><clipPath
       clipPathUnits="userSpaceOnUse"
       id="clipPath92"><path
         d="m 614,322 4,0 0,274 -4,0 0,-274 z"
         id="path94"
         inkscape:connector-curvature="0" /></clipPath><clipPath
       clipPathUnits="userSpaceOnUse"
       id="clipPath130"><path
         d="m 614,288.719 4,0 0,-272.441 -4,0 0,272.441 z"
         id="path132"
         inkscape:connector-curvature="0" /></clipPath><clipPath
       clipPathUnits="userSpaceOnUse"
       id="clipPath140"><path
         d="m 614,16 4,0 0,274 -4,0 0,-274 z"
         id="path142"
         inkscape:connector-curvature="0" /></clipPath><clipPath
       clipPathUnits="userSpaceOnUse"
       id="clipPath150"><path
         d="m 614,290 4,0 0,-274 -4,0 0,274 z"
         id="path152"
         inkscape:connector-curvature="0" /></clipPath><clipPath
       clipPathUnits="userSpaceOnUse"
       id="clipPath160"><path
         d="m 614,16 4,0 0,274 -4,0 0,-274 z"
         id="path162"
         inkscape:connector-curvature="0" /></clipPath></defs><sodipodi:namedview
     pagecolor="#ffffff"
     bordercolor="#666666"
     borderopacity="1"
     objecttolerance="10"
     gridtolerance="10"
     guidetolerance="10"
     inkscape:pageopacity="0"
     inkscape:pageshadow="2"
     inkscape:window-width="2560"
     inkscape:window-height="1376"
     id="namedview4"
     showgrid="false"
     inkscape:zoom="0.61414141"
     inkscape:cx="429.97405"
     inkscape:cy="411.63371"
     inkscape:window-x="1080"
     inkscape:window-y="27"
     inkscape:window-maximized="1"
     inkscape:current-layer="g10" /><g
     id="g10"
     inkscape:groupmode="layer"
     inkscape:label="STJ"
     transform="matrix(1.25,0,0,-1.25,0,765)"><g
       id="g12"><path
         d="M 0,0 792,0 792,612 0,612 0,0 Z"
         style="fill:#ffffff;fill-opacity:1;fill-rule:nonzero;stroke:none"
         id="path14"
         inkscape:connector-curvature="0" /><path
         d="m 86.934,427.582 132.265,0"
         style="fill:none;stroke:#000000;stroke-width:3;stroke-linecap:round;stroke-linejoin:round;stroke-miterlimit:10;stroke-dasharray:none;stroke-opacity:1"
         id="path16"
         inkscape:connector-curvature="0" /><path
         d="m 219.199,364.75 264.535,0"
         style="fill:none;stroke:#000000;stroke-width:3;stroke-linecap:round;stroke-linejoin:round;stroke-miterlimit:10;stroke-dasharray:none;stroke-opacity:1"
         id="path18"
         inkscape:connector-curvature="0" /><path
         d="m 483.734,333.332 198.399,0"
         style="fill:none;stroke:#000000;stroke-width:3;stroke-linecap:round;stroke-linejoin:round;stroke-miterlimit:10;stroke-dasharray:none;stroke-opacity:1"
         id="path20"
         inkscape:connector-curvature="0" /><path
         d="m 483.734,396.168 264.532,0"
         style="fill:none;stroke:#000000;stroke-width:3;stroke-linecap:round;stroke-linejoin:round;stroke-miterlimit:10;stroke-dasharray:none;stroke-opacity:1"
         id="path22"
         inkscape:connector-curvature="0" /><path
         d="m 219.199,490.418 396.801,0"
         style="fill:none;stroke:#000000;stroke-width:3;stroke-linecap:round;stroke-linejoin:round;stroke-miterlimit:10;stroke-dasharray:none;stroke-opacity:1"
         id="path24"
         inkscape:connector-curvature="0" /><path
         d="m 616,459 132.266,0"
         style="fill:none;stroke:#000000;stroke-width:3;stroke-linecap:round;stroke-linejoin:round;stroke-miterlimit:10;stroke-dasharray:none;stroke-opacity:1"
         id="path26"
         inkscape:connector-curvature="0" /><path
         d="m 616,521.832 66.133,0"
         style="fill:none;stroke:#000000;stroke-width:3;stroke-linecap:round;stroke-linejoin:round;stroke-miterlimit:10;stroke-dasharray:none;stroke-opacity:1"
         id="path28"
         inkscape:connector-curvature="0" /><path
         d="m 86.934,584.668 661.332,0"
         style="fill:none;stroke:#000000;stroke-width:3;stroke-linecap:round;stroke-linejoin:round;stroke-miterlimit:10;stroke-dasharray:none;stroke-opacity:1"
         id="path30"
         inkscape:connector-curvature="0" /><path
         d="m 86.934,427.582 0,157.086"
         style="fill:none;stroke:#000000;stroke-width:3;stroke-linecap:round;stroke-linejoin:round;stroke-miterlimit:10;stroke-dasharray:none;stroke-opacity:1"
         id="path32"
         inkscape:connector-curvature="0" /><path
         d="m 219.199,364.75 0,125.668"
         style="fill:none;stroke:#000000;stroke-width:3;stroke-linecap:round;stroke-linejoin:round;stroke-miterlimit:10;stroke-dasharray:none;stroke-opacity:1"
         id="path34"
         inkscape:connector-curvature="0" /><path
         d="m 483.734,333.332 0,62.836"
         style="fill:none;stroke:#000000;stroke-width:3;stroke-linecap:round;stroke-linejoin:round;stroke-miterlimit:10;stroke-dasharray:none;stroke-opacity:1"
         id="path36"
         inkscape:connector-curvature="0" /><path
         d="m 616,459 0,62.832"
         style="fill:none;stroke:#000000;stroke-width:3;stroke-linecap:round;stroke-linejoin:round;stroke-miterlimit:10;stroke-dasharray:none;stroke-opacity:1"
         id="path38"
         inkscape:connector-curvature="0" /><path
         d="m 86.934,323.281 661.332,0"
         style="fill:none;stroke:#000000;stroke-width:0.75;stroke-linecap:round;stroke-linejoin:round;stroke-miterlimit:10;stroke-dasharray:none;stroke-opacity:1"
         id="path40"
         inkscape:connector-curvature="0" /><path
         d="m 86.934,323.281 0,-7.203"
         style="fill:none;stroke:#000000;stroke-width:0.75;stroke-linecap:round;stroke-linejoin:round;stroke-miterlimit:10;stroke-dasharray:none;stroke-opacity:1"
         id="path42"
         inkscape:connector-curvature="0" /><path
         d="m 219.199,323.281 0,-7.203"
         style="fill:none;stroke:#000000;stroke-width:0.75;stroke-linecap:round;stroke-linejoin:round;stroke-miterlimit:10;stroke-dasharray:none;stroke-opacity:1"
         id="path44"
         inkscape:connector-curvature="0" /><path
         d="m 351.465,323.281 0,-7.203"
         style="fill:none;stroke:#000000;stroke-width:0.75;stroke-linecap:round;stroke-linejoin:round;stroke-miterlimit:10;stroke-dasharray:none;stroke-opacity:1"
         id="path46"
         inkscape:connector-curvature="0" /><path
         d="m 483.734,323.281 0,-7.203"
         style="fill:none;stroke:#000000;stroke-width:0.75;stroke-linecap:round;stroke-linejoin:round;stroke-miterlimit:10;stroke-dasharray:none;stroke-opacity:1"
         id="path48"
         inkscape:connector-curvature="0" /><path
         d="m 616,323.281 0,-7.203"
         style="fill:none;stroke:#000000;stroke-width:0.75;stroke-linecap:round;stroke-linejoin:round;stroke-miterlimit:10;stroke-dasharray:none;stroke-opacity:1"
         id="path50"
         inkscape:connector-curvature="0" /><path
         d="m 748.266,323.281 0,-7.203"
         style="fill:none;stroke:#000000;stroke-width:0.75;stroke-linecap:round;stroke-linejoin:round;stroke-miterlimit:10;stroke-dasharray:none;stroke-opacity:1"
         id="path52"
         inkscape:connector-curvature="0" /><text
         transform="matrix(1,0,0,-1,78.433594,297.58301)"
         style="font-variant:normal;font-weight:normal;font-size:12px;font-family:TeXGyreHeros;-inkscape-font-specification:TeXGyreHeros-Regular;writing-mode:lr-tb;fill:#000000;fill-opacity:1;fill-rule:nonzero;stroke:none"
         id="text54"><tspan
           x="0 6.6719999 10.008 132.26401 138.936 142.272 264.53125 271.20325 274.53925 396.80725 403.47925 406.81525 529.06641 535.7384 539.0744 666.33203"
           y="0"
           sodipodi:role="line"
           id="tspan56">0.50.40.30.20.10</tspan></text>
</g><g
       id="g58"><g
         id="g60"
         clip-path="url(#clipPath62)"><g
           id="g66"><g
             id="g68"><g
               id="g70"
               clip-path="url(#clipPath72)"><g
                 id="g76" /><g
                 id="g78"><g
                   id="g80"
                   clip-path="url(#clipPath82)"><g
                     id="g86"><g
                       id="g88"><g
                         id="g90"
                         clip-path="url(#clipPath92)"><g
                           id="g96"><path
                             d="m 616,323.281 0,271.438"
                             style="fill:none;stroke:#000000;stroke-width:2.25;stroke-linecap:round;stroke-linejoin:round;stroke-miterlimit:10;stroke-dasharray:2.25, 6.75;stroke-dashoffset:0;stroke-opacity:1"
                             id="path98"
                             inkscape:connector-curvature="0" /></g></g></g></g></g></g></g></g></g></g></g><g
       id="g100"><path
         d="m 86.934,145.145 132.265,0"
         style="fill:none;stroke:#000000;stroke-width:3;stroke-linecap:round;stroke-linejoin:round;stroke-miterlimit:10;stroke-dasharray:none;stroke-opacity:1"
         id="path102"
         inkscape:connector-curvature="0" /><path
         d="m 219.199,74.457 264.535,0"
         style="fill:none;stroke:#000000;stroke-width:3;stroke-linecap:round;stroke-linejoin:round;stroke-miterlimit:10;stroke-dasharray:none;stroke-opacity:1"
         id="path104"
         inkscape:connector-curvature="0" /><path
         d="m 483.734,27.332 198.399,0"
         style="fill:none;stroke:#000000;stroke-width:3;stroke-linecap:round;stroke-linejoin:round;stroke-miterlimit:10;stroke-dasharray:none;stroke-opacity:1"
         id="path106"
         inkscape:connector-curvature="0" /><path
         d="m 483.734,121.582 132.266,0"
         style="fill:none;stroke:#000000;stroke-width:3;stroke-linecap:round;stroke-linejoin:round;stroke-miterlimit:10;stroke-dasharray:none;stroke-opacity:1"
         id="path108"
         inkscape:connector-curvature="0" /><path
         d="m 616,90.168 132.266,0"
         style="fill:none;stroke:#000000;stroke-width:3;stroke-linecap:round;stroke-linejoin:round;stroke-miterlimit:10;stroke-dasharray:none;stroke-opacity:1"
         id="path110"
         inkscape:connector-curvature="0" /><path
         d="m 616,153 132.266,0"
         style="fill:none;stroke:#000000;stroke-width:3;stroke-linecap:round;stroke-linejoin:round;stroke-miterlimit:10;stroke-dasharray:none;stroke-opacity:1"
         id="path112"
         inkscape:connector-curvature="0" /><path
         d="m 219.199,215.832 462.934,0"
         style="fill:none;stroke:#000000;stroke-width:3;stroke-linecap:round;stroke-linejoin:round;stroke-miterlimit:10;stroke-dasharray:none;stroke-opacity:1"
         id="path114"
         inkscape:connector-curvature="0" /><path
         d="m 86.934,278.668 661.332,0"
         style="fill:none;stroke:#000000;stroke-width:3;stroke-linecap:round;stroke-linejoin:round;stroke-miterlimit:10;stroke-dasharray:none;stroke-opacity:1"
         id="path116"
         inkscape:connector-curvature="0" /><path
         d="m 86.934,145.145 0,133.523"
         style="fill:none;stroke:#000000;stroke-width:3;stroke-linecap:round;stroke-linejoin:round;stroke-miterlimit:10;stroke-dasharray:none;stroke-opacity:1"
         id="path118"
         inkscape:connector-curvature="0" /><path
         d="m 219.199,74.457 0,141.375"
         style="fill:none;stroke:#000000;stroke-width:3;stroke-linecap:round;stroke-linejoin:round;stroke-miterlimit:10;stroke-dasharray:none;stroke-opacity:1"
         id="path120"
         inkscape:connector-curvature="0" /><path
         d="m 483.734,27.332 0,94.25"
         style="fill:none;stroke:#000000;stroke-width:3;stroke-linecap:round;stroke-linejoin:round;stroke-miterlimit:10;stroke-dasharray:none;stroke-opacity:1"
         id="path122"
         inkscape:connector-curvature="0" /><path
         d="M 616,90.168 616,153"
         style="fill:none;stroke:#000000;stroke-width:3;stroke-linecap:round;stroke-linejoin:round;stroke-miterlimit:10;stroke-dasharray:none;stroke-opacity:1"
         id="path124"
         inkscape:connector-curvature="0" /></g><g
       id="g126"><g
         id="g128"
         clip-path="url(#clipPath130)"><g
           id="g134"><g
             id="g136"><g
               id="g138"
               clip-path="url(#clipPath140)"><g
                 id="g144" /><g
                 id="g146"><g
                   id="g148"
                   clip-path="url(#clipPath150)"><g
                     id="g154"><g
                       id="g156"><g
                         id="g158"
                         clip-path="url(#clipPath160)"><g
                           id="g164"><path
                             d="m 616,17.281 0,271.438"
                             style="fill:none;stroke:#000000;stroke-width:2.25;stroke-linecap:round;stroke-linejoin:round;stroke-miterlimit:10;stroke-dasharray:2.25, 6.75;stroke-dashoffset:0;stroke-opacity:1"
                             id="path166"
                             inkscape:connector-curvature="0" /></g></g></g></g></g></g></g></g></g></g></g><g
       id="g168"><path
         d="m 763.055,396.762 c 0,-3.578 -3.192,-6.481 -7.133,-6.481 -3.938,0 -7.129,2.903 -7.129,6.481 0,3.582 3.191,6.484 7.129,6.484 3.941,0 7.133,-2.902 7.133,-6.484 z"
         style="fill:#2d22e1;fill-opacity:1;fill-rule:nonzero;stroke:none"
         id="path170"
         inkscape:connector-curvature="0" /><path
         d="m 761.109,90.113 c 0,-3.578 -3.191,-6.48 -7.129,-6.48 -3.941,0 -7.132,2.902 -7.132,6.48 0,3.582 3.191,6.485 7.132,6.485 3.938,0 7.129,-2.903 7.129,-6.485 z"
         style="fill:#2d22e1;fill-opacity:1;fill-rule:nonzero;stroke:none"
         id="path172"
         inkscape:connector-curvature="0" /><path
         d="m 695.633,522.535 c 0,-3.582 -3.195,-6.484 -7.133,-6.484 -3.938,0 -7.133,2.902 -7.133,6.484 0,3.578 3.195,6.481 7.133,6.481 3.938,0 7.133,-2.903 7.133,-6.481 z"
         style="fill:#f2510f;fill-opacity:1;fill-rule:nonzero;stroke:none"
         id="path174"
         inkscape:connector-curvature="0" /><path
         d="m 694.984,216.535 c 0,-3.582 -3.195,-6.484 -7.132,-6.484 -3.938,0 -7.133,2.902 -7.133,6.484 0,3.578 3.195,6.481 7.133,6.481 3.937,0 7.132,-2.903 7.132,-6.481 z"
         style="fill:#f2510f;fill-opacity:1;fill-rule:nonzero;stroke:none"
         id="path176"
         inkscape:connector-curvature="0" /><path
         d="m 759.164,153.648 c 0,-3.582 -3.191,-6.484 -7.129,-6.484 -3.941,0 -7.133,2.902 -7.133,6.484 0,3.582 3.192,6.485 7.133,6.485 3.938,0 7.129,-2.903 7.129,-6.485 z"
         style="fill:#44cb39;fill-opacity:1;fill-rule:nonzero;stroke:none"
         id="path178"
         inkscape:connector-curvature="0" /><path
         d="m 760.461,459.648 c 0,-3.582 -3.191,-6.484 -7.129,-6.484 -3.941,0 -7.133,2.902 -7.133,6.484 0,3.582 3.192,6.485 7.133,6.485 3.938,0 7.129,-2.903 7.129,-6.485 z"
         style="fill:#44cb39;fill-opacity:1;fill-rule:nonzero;stroke:none"
         id="path180"
         inkscape:connector-curvature="0" /><path
         d="m 97.566,76.574 9.184,0 c 0.762,0 2.621,0 2.621,1.848 0,1.312 -1.094,1.312 -2.078,1.312 l -15.297,0 c -1.094,0 -3.172,0 -5.574,-2.558 -1.86,-1.957 -3.391,-4.571 -3.391,-4.906 0,-0.055 0,-0.536 0.657,-0.536 0.437,0 0.546,0.219 0.874,0.653 2.735,4.187 5.793,4.187 6.997,4.187 l 4.48,0 -5.355,-17.476 c -0.219,-0.653 -0.547,-1.789 -0.547,-2.008 0,-0.602 0.437,-1.477 1.64,-1.477 1.746,0 2.075,1.532 2.184,2.34 l 3.605,18.621 z"
         style="fill:#000000;fill-opacity:1;fill-rule:evenodd;stroke:none"
         id="path182"
         inkscape:connector-curvature="0" /><path
         d="m 123.25,97.207 0,0.055 0.109,0.054 0,0.219 0.11,0.043 0,0.262 0.109,0.047 0,0.535 c 0,1.191 -1.094,2.098 -2.187,2.098 -1.528,0 -1.965,-1.18 -2.184,-1.793 L 114.18,82.223 c 0,-0.075 -0.11,-0.567 -0.11,-0.598 0,-0.461 1.203,-0.844 1.422,-0.844 0.328,0 0.328,0.078 0.656,0.645 l 7.102,15.781 z"
         style="fill:#000000;fill-opacity:1;fill-rule:evenodd;stroke:none"
         id="path184"
         inkscape:connector-curvature="0" /><path
         d="m 98.734,368.352 9.18,0 c 0.766,0 2.625,0 2.625,1.847 0,1.313 -1.094,1.313 -2.078,1.313 l -15.301,0 c -1.09,0 -3.168,0 -5.574,-2.559 -1.856,-1.957 -3.387,-4.566 -3.387,-4.906 0,-0.055 0,-0.535 0.656,-0.535 0.438,0 0.547,0.218 0.875,0.656 2.731,4.184 5.793,4.184 6.993,4.184 l 4.48,0 -5.351,-17.473 c -0.219,-0.656 -0.547,-1.793 -0.547,-2.012 0,-0.601 0.437,-1.476 1.636,-1.476 1.75,0 2.079,1.531 2.188,2.339 l 3.605,18.622 z"
         style="fill:#000000;fill-opacity:1;fill-rule:evenodd;stroke:none"
         id="path186"
         inkscape:connector-curvature="0" /><path
         d="m 612.762,588.812 7.367,0 0,-7.598 -7.367,0 0,7.598 z"
         style="fill:#ea1ebd;fill-opacity:1;fill-rule:nonzero;stroke:none"
         id="path188"
         inkscape:connector-curvature="0" /><path
         d="m 612.301,399.758 7.367,0 0,-7.602 -7.367,0 0,7.602 z"
         style="fill:#ea1ebd;fill-opacity:1;fill-rule:nonzero;stroke:none"
         id="path190"
         inkscape:connector-curvature="0" /><path
         d="m 612.301,337.121 7.367,0 0,-7.598 -7.367,0 0,7.598 z"
         style="fill:#ea1ebd;fill-opacity:1;fill-rule:nonzero;stroke:none"
         id="path192"
         inkscape:connector-curvature="0" /></g><path
       style="fill:#170312;fill-opacity:0.9285714"
       id="path4330"
       transform="scale(1,-1)"
       sodipodi:type="arc"
       sodipodi:cx="754.38062"
       sodipodi:cy="-585.35876"
       sodipodi:rx="6.9082475"
       sodipodi:ry="6.9082475"
       sodipodi:start="0"
       sodipodi:end="6.1860752"
       sodipodi:open="true"
       d="m 761.28886,-585.35876 a 6.9082475,6.9082475 0 0 1 -6.74055,6.90621 6.9082475,6.9082475 0 0 1 -7.0678,-6.57092 6.9082475,6.9082475 0 0 1 6.3974,-7.22523 6.9082475,6.9082475 0 0 1 7.3784,6.22013" /><path
       d="m 690.82475,-333.43802 a 6.9082475,6.9082475 0 0 1 -6.74055,6.90621 6.9082475,6.9082475 0 0 1 -7.0678,-6.57091 6.9082475,6.9082475 0 0 1 6.3974,-7.22523 6.9082475,6.9082475 0 0 1 7.3784,6.22012"
       sodipodi:open="true"
       sodipodi:end="6.1860752"
       sodipodi:start="0"
       sodipodi:ry="6.9082475"
       sodipodi:rx="6.9082475"
       sodipodi:cy="-333.43802"
       sodipodi:cx="683.9165"
       sodipodi:type="arc"
       transform="scale(1,-1)"
       id="path4334"
       style="fill:#170312;fill-opacity:0.92857139" /><path
       d="m 758.06499,-279.09314 a 6.9082475,6.9082475 0 0 1 -6.74055,6.90621 6.9082475,6.9082475 0 0 1 -7.06781,-6.57091 6.9082475,6.9082475 0 0 1 6.39741,-7.22523 6.9082475,6.9082475 0 0 1 7.3784,6.22012"
       sodipodi:open="true"
       sodipodi:end="6.1860752"
       sodipodi:start="0"
       sodipodi:ry="6.9082475"
       sodipodi:rx="6.9082475"
       sodipodi:cy="-279.09314"
       sodipodi:cx="751.15674"
       sodipodi:type="arc"
       transform="scale(1,-1)"
       id="path4336"
       style="fill:#170312;fill-opacity:0.92857139" /><path
       style="fill:#170312;fill-opacity:0.92857139"
       id="path4338"
       transform="scale(1,-1)"
       sodipodi:type="arc"
       sodipodi:cx="686.21924"
       sodipodi:cy="-28.093493"
       sodipodi:rx="6.9082475"
       sodipodi:ry="6.9082475"
       sodipodi:start="0"
       sodipodi:end="6.1860752"
       sodipodi:open="true"
       d="m 693.12749,-28.093493 a 6.9082475,6.9082475 0 0 1 -6.74055,6.906212 6.9082475,6.9082475 0 0 1 -7.06781,-6.570913 6.9082475,6.9082475 0 0 1 6.39741,-7.225231 6.9082475,6.9082475 0 0 1 7.3784,6.220126" /></g></svg>